<?xml version="1.0" encoding="UTF-8"?>
<svg id="Layer_1" data-name="Layer 1" xmlns="http://www.w3.org/2000/svg" version="1.1" xmlns:xlink="http://www.w3.org/1999/xlink" viewBox="0 0 823.1 121.4">
  <defs>
    <style>
      .cls-1 {
        filter: url(#outer-glow-11);
      }

      .cls-1, .cls-2, .cls-3, .cls-4, .cls-5, .cls-6, .cls-7, .cls-8, .cls-9, .cls-10, .cls-11, .cls-12, .cls-13, .cls-14 {
        fill: #206ab2;
        stroke: #fff;
        stroke-miterlimit: 10;
      }

      .cls-1, .cls-2, .cls-3, .cls-4, .cls-5, .cls-6, .cls-10 {
        stroke-width: 4.8px;
      }

      .cls-2 {
        filter: url(#outer-glow-14);
      }

      .cls-3 {
        filter: url(#outer-glow-15);
      }

      .cls-4 {
        filter: url(#outer-glow-16);
      }

      .cls-5 {
        filter: url(#outer-glow-10);
      }

      .cls-6 {
        filter: url(#outer-glow-12);
      }

      .cls-7 {
        filter: url(#outer-glow-2);
      }

      .cls-7, .cls-8, .cls-9, .cls-11, .cls-12, .cls-13, .cls-14 {
        stroke-width: 2px;
      }

      .cls-15 {
        filter: url(#drop-shadow-1);
      }

      .cls-15, .cls-16 {
        display: none;
      }

      .cls-8 {
        filter: url(#outer-glow-3);
      }

      .cls-9 {
        filter: url(#outer-glow-5);
      }

      .cls-10 {
        filter: url(#outer-glow-13);
      }

      .cls-16 {
        fill: #231f20;
        opacity: .5;
        stroke-width: 0px;
      }

      .cls-11 {
        filter: url(#outer-glow-4);
      }

      .cls-12 {
        filter: url(#outer-glow-7);
      }

      .cls-13 {
        filter: url(#outer-glow-6);
      }

      .cls-14 {
        filter: url(#outer-glow-8);
      }

      .cls-17 {
        filter: url(#drop-shadow-9);
      }
    </style>
    <filter id="drop-shadow-1" filterUnits="userSpaceOnUse">
      <feOffset dx="1" dy="4"/>
      <feGaussianBlur result="blur" stdDeviation="0"/>
      <feFlood flood-color="#424444" flood-opacity="1"/>
      <feComposite in2="blur" operator="in"/>
      <feComposite in="SourceGraphic"/>
    </filter>
    <filter id="outer-glow-2" filterUnits="userSpaceOnUse">
      <feOffset dx="0" dy="0"/>
      <feGaussianBlur result="blur-2" stdDeviation="2"/>
      <feFlood flood-color="#f6d40c" flood-opacity="1"/>
      <feComposite in2="blur-2" operator="in"/>
      <feComposite in="SourceGraphic"/>
    </filter>
    <filter id="outer-glow-3" filterUnits="userSpaceOnUse">
      <feOffset dx="0" dy="0"/>
      <feGaussianBlur result="blur-3" stdDeviation="2"/>
      <feFlood flood-color="#f6d40c" flood-opacity="1"/>
      <feComposite in2="blur-3" operator="in"/>
      <feComposite in="SourceGraphic"/>
    </filter>
    <filter id="outer-glow-4" filterUnits="userSpaceOnUse">
      <feOffset dx="0" dy="0"/>
      <feGaussianBlur result="blur-4" stdDeviation="2"/>
      <feFlood flood-color="#f6d40c" flood-opacity="1"/>
      <feComposite in2="blur-4" operator="in"/>
      <feComposite in="SourceGraphic"/>
    </filter>
    <filter id="outer-glow-5" filterUnits="userSpaceOnUse">
      <feOffset dx="0" dy="0"/>
      <feGaussianBlur result="blur-5" stdDeviation="2"/>
      <feFlood flood-color="#f6d40c" flood-opacity="1"/>
      <feComposite in2="blur-5" operator="in"/>
      <feComposite in="SourceGraphic"/>
    </filter>
    <filter id="outer-glow-6" filterUnits="userSpaceOnUse">
      <feOffset dx="0" dy="0"/>
      <feGaussianBlur result="blur-6" stdDeviation="2"/>
      <feFlood flood-color="#f6d40c" flood-opacity="1"/>
      <feComposite in2="blur-6" operator="in"/>
      <feComposite in="SourceGraphic"/>
    </filter>
    <filter id="outer-glow-7" filterUnits="userSpaceOnUse">
      <feOffset dx="0" dy="0"/>
      <feGaussianBlur result="blur-7" stdDeviation="2"/>
      <feFlood flood-color="#f6d40c" flood-opacity="1"/>
      <feComposite in2="blur-7" operator="in"/>
      <feComposite in="SourceGraphic"/>
    </filter>
    <filter id="outer-glow-8" filterUnits="userSpaceOnUse">
      <feOffset dx="0" dy="0"/>
      <feGaussianBlur result="blur-8" stdDeviation="2"/>
      <feFlood flood-color="#f6d40c" flood-opacity="1"/>
      <feComposite in2="blur-8" operator="in"/>
      <feComposite in="SourceGraphic"/>
    </filter>
    <filter id="drop-shadow-9" filterUnits="userSpaceOnUse">
      <feOffset dx="2.4" dy="9.6"/>
      <feGaussianBlur result="blur-9" stdDeviation="0"/>
      <feFlood flood-color="#424444" flood-opacity="1"/>
      <feComposite in2="blur-9" operator="in"/>
      <feComposite in="SourceGraphic"/>
    </filter>
    <filter id="outer-glow-10" filterUnits="userSpaceOnUse">
      <feOffset dx="0" dy="0"/>
      <feGaussianBlur result="blur-10" stdDeviation="4.8"/>
      <feFlood flood-color="#000" flood-opacity="1"/>
      <feComposite in2="blur-10" operator="in"/>
      <feComposite in="SourceGraphic"/>
    </filter>
    <filter id="outer-glow-11" filterUnits="userSpaceOnUse">
      <feOffset dx="0" dy="0"/>
      <feGaussianBlur result="blur-11" stdDeviation="4.8"/>
      <feFlood flood-color="#000" flood-opacity="1"/>
      <feComposite in2="blur-11" operator="in"/>
      <feComposite in="SourceGraphic"/>
    </filter>
    <filter id="outer-glow-12" filterUnits="userSpaceOnUse">
      <feOffset dx="0" dy="0"/>
      <feGaussianBlur result="blur-12" stdDeviation="4.8"/>
      <feFlood flood-color="#000" flood-opacity="1"/>
      <feComposite in2="blur-12" operator="in"/>
      <feComposite in="SourceGraphic"/>
    </filter>
    <filter id="outer-glow-13" filterUnits="userSpaceOnUse">
      <feOffset dx="0" dy="0"/>
      <feGaussianBlur result="blur-13" stdDeviation="4.8"/>
      <feFlood flood-color="#000" flood-opacity="1"/>
      <feComposite in2="blur-13" operator="in"/>
      <feComposite in="SourceGraphic"/>
    </filter>
    <filter id="outer-glow-14" filterUnits="userSpaceOnUse">
      <feOffset dx="0" dy="0"/>
      <feGaussianBlur result="blur-14" stdDeviation="4.8"/>
      <feFlood flood-color="#000" flood-opacity="1"/>
      <feComposite in2="blur-14" operator="in"/>
      <feComposite in="SourceGraphic"/>
    </filter>
    <filter id="outer-glow-15" filterUnits="userSpaceOnUse">
      <feOffset dx="0" dy="0"/>
      <feGaussianBlur result="blur-15" stdDeviation="4.8"/>
      <feFlood flood-color="#000" flood-opacity="1"/>
      <feComposite in2="blur-15" operator="in"/>
      <feComposite in="SourceGraphic"/>
    </filter>
    <filter id="outer-glow-16" filterUnits="userSpaceOnUse">
      <feOffset dx="0" dy="0"/>
      <feGaussianBlur result="blur-16" stdDeviation="4.8"/>
      <feFlood flood-color="#000" flood-opacity="1"/>
      <feComposite in2="blur-16" operator="in"/>
      <feComposite in="SourceGraphic"/>
    </filter>
  </defs>
  <polygon class="cls-16" points="-57.4 68.6 -407.4 68.6 -374.4 2.4 -24.4 2.4 -57.4 68.6"/>
  <g class="cls-15">
    <path class="cls-7" d="M-330.9,53.9h16.6l9.1-15,29.7-24.9h-18l-14,12.8-1-12.5h-19l5.4,24.7-8.7,14.9"/>
    <path class="cls-8" d="M-349.6,14.1h-1.9c0,0-1.8.1-1.8.1l-1.6.3-1.4.3-1.2.3-.9.4-1.3.9-1.1,1.2-.9,1.3-4.1,7.5-.3.6-.5,1.3c-.6,2.5-.7,3.4,1.3,5.1,2.8,1.6,6.7,2.4,9.8,3.5l1.7.7,1.2.6.6.4v.3c-.5,1.5-1.1,3.3-2.6,4.3h0s-.9.2-.9.2h-1.6s-2.1.2-2.1.2h-15s-5.7,10.1-5.7,10.1h22.5s1.1,0,1.1,0h2.1s1.8-.1,1.8-.1c2.4,0,4.4-.3,6.8-1.2,2.1-.7,4.5-3.3,5.4-5.2l4.3-7.9.4-.8.5-1.3.2-.6v-1.4c.4-5-7.8-6-11.4-7.3l-1.4-.4-1.6-.6-.8-.4h0c0-.1,0-.4,0-.4l.5-.9.7-.5h.6c0-.1,1.8-.2,1.8-.2h12.7c0,0,5.2-10.2,5.2-10.2h-21.2Z"/>
    <polygon class="cls-11" points="-257.2 24.2 -259.8 24.2 -276 53.6 -294 53.6 -272.3 14 -241 14.2 -239.5 14.1 -237.9 14.4 -236.5 15 -236.1 15.3 -235 16.3 -234.3 17.6 -234.2 19 -235.3 20.6 -235.3 20.6 -235.3 20.7 -253.7 53.6 -270.8 53.6 -255.7 25.4 -255.6 25.2 -255.8 24.4 -256.8 24.1 -257.2 24.2"/>
    <path class="cls-9" d="M-146.3,17.7l-.7-1.4-1.1-1-.4-.2-1.4-.5-1.7-.3-1.8-.2h-30.6s-21.9,39.6-21.9,39.6h17.6c0,0,8.4-15.5,8.4-15.5h3.5s.2,0,.2,0l1.1.4.4.7h-.1c0,.1-7.6,14.3-7.6,14.3h16.9c0,0,5.7-10.4,5.7-10.4h0c0-.1.7-1.5.7-1.5l.2-1.4v-1s-.6-1.4-.6-1.4v-.2c0,0,.4,0,.4,0l1.4-.5.5-.4,1.3-1,1.6-1.2,7.6-13.8.6-1.9-.2-1.3ZM-166,25.1l-.2.5-1.7,3.6h-7.8c0,0,3.3-6.1,3.3-6.1h4.1c0-.1.3,0,.3,0l1.4.4h.2c0,0,.5,1.2.5,1.2v.4Z"/>
    <path class="cls-13" d="M-104.8,28.3l-11.1,19.4-.9,1.4-1,1.2-1,1-1.3.8-.6.2c-1.7.9-6.1,1.3-7.8,1.2h-.5s-20-.3-20-.3h-1.9c0-.1-1.6-.5-1.6-.5l-1.4-.6-.3-.2-1.2-1.1-.6-1.3v-1.3c-.1,0,0-1.4,0-1.4l.7-1.4h.1s14.5-25.5,14.5-25.5l.9-1.4,1-1.2,1.1-1.1,1.2-.8.6-.2c2.2-1.1,6.1-1.2,8.3-1.2l20,.3h1.9c0,.1,1.6.5,1.6.5l1.4.6.4.2,1.1,1.1c1.9,3.4.1,4.5-1.5,7.9l-19.9-.3-1.4.2-.9.3-.8.6-.6.7-9.1,16.1v.2c0,0,.3.6.3.6,4.2,1.5,5.1-1,7.2-4.7h-3.5c0-.1,5.8-10.1,5.8-10.1l20.7.2Z"/>
    <polygon class="cls-12" points="-213.7 28.2 -211.5 24.3 -195.5 24.7 -189.6 14.5 -226.1 14.1 -248.2 53.6 -212.7 53.9 -206.8 43.7 -222.5 43.5 -219.4 38.3 -203.7 38.5 -197.8 28.4 -213.7 28.2"/>
    <path class="cls-14" d="M-103.3,53.9h16.6l9.1-15,29.7-24.9h-18l-14,12.8-1-12.5h-19l5.4,24.7-8.7,14.9"/>
  </g>
  <g class="cls-17">
    <path class="cls-5" d="M127.5,99.6h39.8l21.8-35.9L260.3,3.9h-43.1l-33.5,30.7-2.5-30h-45.6l12.9,59.2-20.9,35.8"/>
    <path class="cls-1" d="M82.7,3.9l-4.6.2h-4.3c0,.1-3.8.7-3.8.7l-3.3.6-2.9.8-2.2.9-3.2,2.1-2.7,2.9-2.1,3.2-9.9,17.9-.7,1.4-1.2,3.1c-1.4,6.1-1.8,8.3,3,12.2,6.7,3.9,16,5.8,23.6,8.3l4.2,1.6,2.9,1.5,1.4,1,.3.7c-1.6,3.7-2.9,8-6.6,10.4h-.2c0-.1-2.2.5-2.2.5h-3.7c0,0-4.9.4-4.9.4H23.7c0,0-13.6,24.3-13.6,24.3h53.9s2.7,0,2.7,0h5s4.4-.4,4.4-.4c5.7-.2,10.6-.7,16.3-2.9,5.1-1.8,10.8-7.8,13-12.6l10.4-19.1.9-1.8,1.2-3.1.5-1.5.3-3.3c.7-12.1-19.1-14.4-27.7-17.6l-3.4-.9-3.8-1.4-2-1v-.3c0,0,.2-.8.2-.8l1.2-2.3,1.6-1.2,1.5-.4h4.3c0-.1,30.5-.3,30.5-.3l12.6-24.3h-50.9Z"/>
    <polygon class="cls-6" points="304.3 28.2 298.2 28.3 259.3 98.9 216.2 98.9 268.2 3.9 343.3 4.2 346.9 4.1 350.7 4.8 354 6.2 355 6.9 357.7 9.4 359.4 12.5 359.6 15.8 357.1 19.7 357.1 19.7 357 19.9 312.9 98.9 271.7 98.9 308 31.2 308.2 30.7 307.7 28.9 305.3 28.1 304.3 28.2"/>
    <path class="cls-10" d="M570.6,12.6l-1.7-3.3-2.7-2.5-.9-.6-3.2-1.2-4-.7-4.3-.4h-73.5c0,0-52.4,95-52.4,95h42.3c0-.1,20.2-37.1,20.2-37.1h8.4c0,0,.5,0,.5,0l2.6.9.8,1.8-.3.2-18.3,34,40.7-.2,13.6-24.7v-.2s1.7-3.2,1.7-3.2l.4-3.3v-2.3c0,0-1.5-3.3-1.5-3.3l-.2-.5h1.2c0-.1,3.4-1.2,3.4-1.2l1.2-.8,3.1-2.5,3.8-3,18.3-33,1.3-4.5-.5-3.2ZM523.3,30.5l-.6,1.2-4.2,8.7-18.7.2,7.9-14.7,9.8-.2h.7c0,.1,3.3,1.2,3.3,1.2l.5.2,1.2,2.7v.9Z"/>
    <path class="cls-2" d="M670.1,38.1l-26.6,46.5-2.2,3.4-2.5,3-2.5,2.5-3,1.9-1.4.6c-4.1,2.2-14.6,3.2-18.7,2.9h-1.2c0,0-47.9-.6-47.9-.6l-4.4-.3-3.7-.9-3.3-1.5-.8-.5-2.9-2.5-1.5-3.1-.3-3.2.5-3.4,1.7-3.5h.2c0,0,34.8-61.2,34.8-61.2l2.2-3.4,2.5-3,2.7-2.6,2.8-1.9,1.4-.6c5.3-2.6,14.6-3,19.9-2.9l47.9.7,4.4.3,3.7.9,3.3,1.5,1,.4,2.7,2.6c4.6,8.2.2,10.8-3.7,18.9l-47.7-.8-3.4.4-2.2.8-1.9,1.4-1.3,1.7-21.8,38.7-.2.5.8,1.4c10.1,3.6,12.1-2.3,17.3-11.4l-8.5-.3,13.9-24.1,49.7.5Z"/>
    <polygon class="cls-3" points="408.9 37.8 414.2 28.5 452.5 29.4 466.6 5.1 379 4 326.1 98.8 411.3 99.4 425.5 75.1 387.7 74.6 395.1 62.1 432.9 62.7 447 38.4 408.9 37.8"/>
    <path class="cls-4" d="M673.7,99.6h39.8l21.7-35.9L806.5,3.9h-43.1l-33.5,30.7-2.5-30h-45.6l12.9,59.2-20.9,35.8"/>
  </g>
</svg>